<svg xmlns="http://www.w3.org/2000/svg" width="227.972" height="66" viewBox="0 0 227.972 66"><g transform="translate(1 -0.001)"><g transform="translate(-1 0.001)"><g transform="translate(0 0)"><path d="M58.606,87.956c-3.723.621-14.329,1.982-22.968-2.782a23.062,23.062,0,0,1-4.824-3.455c-4.112-3.853-5.664-8.235-6.846-11.691-1.124-3.3-3.083-12.249-4.427-17.577a8.852,8.852,0,0,0-2.048-4.331,3.045,3.045,0,0,0-2.862-.922c-2.5.52-3.054,3.177-3.151,5.344-.108,2.694.029,12.408.029,12.408L4.6,71.652.05,76.035S.016,68.262.016,59.961c0-3.1-.016-6.274-.016-9.139,0-1.928.016-3.694.016-5.253a21.248,21.248,0,0,1,.717-5.518c0-.034.016-.065.016-.1a14.284,14.284,0,0,1,1.182-2.98,11.977,11.977,0,0,1,3.385-4.12A10.835,10.835,0,0,1,7.641,31.5a11.871,11.871,0,0,1,8.069-.21,13.5,13.5,0,0,1,3.2,1.5,16.735,16.735,0,0,1,2.7,2.174,18.294,18.294,0,0,1,3.81,5.435.614.614,0,0,1,.066.114,27.043,27.043,0,0,1,1.615,4.1c1.964,6.339,3.211,12.844,4.96,19.224A44.93,44.93,0,0,0,36.47,74.59,26.439,26.439,0,0,0,46.682,84.912,25.525,25.525,0,0,0,58.606,87.956Z" transform="translate(0 -22.622)" fill="#9ec229"/><path d="M21.14.666c3.726-.621,14.332-1.98,22.971,2.785a23.03,23.03,0,0,1,4.826,3.455c4.109,3.853,5.664,8.235,6.846,11.691,1.126,3.3,3.08,12.249,4.427,17.572A8.842,8.842,0,0,0,62.258,40.5a3.045,3.045,0,0,0,2.862.922c2.5-.52,3.051-3.177,3.151-5.341.108-2.7-.029-12.41-.029-12.41l6.924-6.7,4.545-4.38s.032,7.773.032,16.073c0,3.094.018,6.274.018,9.139,0,1.925-.018,3.7-.018,5.253a21.242,21.242,0,0,1-.727,5.528c0,.034-.016.068-.016.1a14.609,14.609,0,0,1-1.179,2.972c-.079.148-.263.473-.525.873a11.942,11.942,0,0,1-3.2,3.492,10.523,10.523,0,0,1-2.408,1.265,10.951,10.951,0,0,1-4.4.634,13.034,13.034,0,0,1-3.676-.74c-.423-.14-.743-.273-.822-.3a12.776,12.776,0,0,1-2.025-1.086,16.421,16.421,0,0,1-2.177-1.7,18.323,18.323,0,0,1-2.253-2.517,19.255,19.255,0,0,1-2.006-3.346.613.613,0,0,1-.066-.114,27.043,27.043,0,0,1-1.615-4.1c-1.964-6.339-3.211-12.844-4.96-19.224a44.948,44.948,0,0,0-4.411-10.755A26.442,26.442,0,0,0,33.067,3.7,25.528,25.528,0,0,0,21.14.666Z" transform="translate(-15.589 -0.001)" fill="#f5df4d"/></g><path d="M296.92,77.464V54.233q0-3.117,1.208-4.464a6.524,6.524,0,0,1,7.444-.331,7.585,7.585,0,0,1,1.888,3.645l5.533,21.254a2.489,2.489,0,0,0,.46.99.929.929,0,0,0,.683.242q.877,0,.877-1.449V50.457a2.372,2.372,0,0,1,.4-1.625,2.36,2.36,0,0,1,1.623-.394h.441a2.373,2.373,0,0,1,1.623.394,2.386,2.386,0,0,1,.4,1.625V73.688q0,3.151-1.163,4.464a4.91,4.91,0,0,1-3.844,1.313,5.325,5.325,0,0,1-3.576-1.05,7.869,7.869,0,0,1-2-3.821l-5.446-20.8A3.123,3.123,0,0,0,303,52.631a.89.89,0,0,0-.725-.286q-.88,0-.877,1.536V77.464a2.384,2.384,0,0,1-.394,1.625,2.359,2.359,0,0,1-1.625.394h-.439a1.608,1.608,0,0,1-2.022-2.019Z" transform="translate(-218.846 -35.936)" fill="#9ec229"/><path d="M421.493,89.321q0,.179-.087,1.933a1.794,1.794,0,0,1-2.24,2.019h-12.2v.966a3.919,3.919,0,0,0,1.471,3.448,8.555,8.555,0,0,0,4.808,1.032,23.856,23.856,0,0,0,5.708-.693c.7-.176,1.18-.153,1.429.065a2.017,2.017,0,0,1,.373,1.47v.565a2.318,2.318,0,0,1-.331,1.47,3.169,3.169,0,0,1-1.47.68,21.189,21.189,0,0,1-5.709.7q-5.577,0-8.19-2.263t-2.613-7.134V89.759q0-9.527,9.75-9.529,4.577,0,6.94,2.3T421.493,89.321Zm-14.534-.835v1.1h10.28v-1.1q0-4.348-5.181-4.346-5.1,0-5.094,4.346Z" transform="translate(-296.927 -59.462)" fill="#9ec229"/><path d="M493.63,82.192l2.064,14.7a3.611,3.611,0,0,0,.549,1.691,1.46,1.46,0,0,0,1.205.46,1.439,1.439,0,0,0,1.187-.483,3.511,3.511,0,0,0,.57-1.667l1.715-12.383a5.652,5.652,0,0,1,1.381-3.337,4.623,4.623,0,0,1,3.272-.966,4.829,4.829,0,0,1,3.293.945,5.507,5.507,0,0,1,1.4,3.364L511.982,96.9a3.612,3.612,0,0,0,.549,1.691,1.462,1.462,0,0,0,1.208.46,1.439,1.439,0,0,0,1.184-.483,3.537,3.537,0,0,0,.572-1.667l2.064-14.7a2.626,2.626,0,0,1,.614-1.575,2.54,2.54,0,0,1,1.623-.4h.659c.788,0,1.3.131,1.515.4a2.185,2.185,0,0,1,.155,1.575l-2.14,14.925a8.046,8.046,0,0,1-1.888,4.522,6.048,6.048,0,0,1-4.346,1.313,5.179,5.179,0,0,1-3.939-1.339,8.161,8.161,0,0,1-1.691-4.5l-1.452-11.186a5.192,5.192,0,0,0-.373-1.491.754.754,0,0,0-.725-.347.709.709,0,0,0-.68.352,5.191,5.191,0,0,0-.373,1.486l-1.494,11.2a8.325,8.325,0,0,1-1.667,4.522,5.1,5.1,0,0,1-3.91,1.313,6.251,6.251,0,0,1-4.411-1.313,7.546,7.546,0,0,1-1.822-4.522L489.061,82.2a2.128,2.128,0,0,1,.155-1.576,2.025,2.025,0,0,1,1.515-.4h.659a2.469,2.469,0,0,1,1.623.4A2.677,2.677,0,0,1,493.63,82.192Z" transform="translate(-361.084 -59.447)" fill="#9ec229"/><path d="M629.719,73.08V50.469a2.281,2.281,0,0,1,.394-1.576,2.281,2.281,0,0,1,1.576-.394h.572a2.281,2.281,0,0,1,1.576.394,2.281,2.281,0,0,1,.394,1.576V72.206a4.452,4.452,0,0,0,.483,2.416,1.78,1.78,0,0,0,1.576.7,2.05,2.05,0,0,1,1.384.307,2.353,2.353,0,0,1,.286,1.447v.436a2.127,2.127,0,0,1-.352,1.426,1.978,1.978,0,0,1-.977.491,4.234,4.234,0,0,1-1.087.147,5.6,5.6,0,0,1-4.3-1.646A6.805,6.805,0,0,1,629.719,73.08Z" transform="translate(-465.053 -35.988)" fill="#9ec229"/><path d="M672.837,53.209A2.7,2.7,0,0,1,672,51.234a2.558,2.558,0,0,1,.832-1.933,2.71,2.71,0,0,1,1.977-.832,2.855,2.855,0,0,1,2.77,2.765,2.71,2.71,0,0,1-.832,1.977,2.626,2.626,0,0,1-1.933.788A2.786,2.786,0,0,1,672.837,53.209Zm-.313,24.37V59.443a1.581,1.581,0,0,1,1.972-1.969h.57a1.581,1.581,0,0,1,1.972,1.969V77.579a2.264,2.264,0,0,1-.4,1.575,2.314,2.314,0,0,1-1.576.4h-.57a2.264,2.264,0,0,1-1.576-.4A2.314,2.314,0,0,1,672.524,77.579Z" transform="translate(-496.318 -35.965)" fill="#9ec229"/><path d="M715.709,88.748V101a2.275,2.275,0,0,1-.394,1.576,2.307,2.307,0,0,1-1.576.4h-.57a2.264,2.264,0,0,1-1.576-.4A2.307,2.307,0,0,1,711.2,101V88.748q0-8.516,9.571-8.518,4.921,0,7.224,2.085t2.306,6.433V101a1.581,1.581,0,0,1-1.969,1.972h-.572a2.258,2.258,0,0,1-1.576-.4,2.325,2.325,0,0,1-.394-1.576V88.748a4.275,4.275,0,0,0-1.1-3.335q-1.1-.972-3.931-.966-2.854,0-3.952.966A4.271,4.271,0,0,0,715.709,88.748Z" transform="translate(-525.678 -59.462)" fill="#9ec229"/><path d="M819.3,89.321q0,.179-.089,1.933a1.792,1.792,0,0,1-2.24,2.019H804.765v.966a3.916,3.916,0,0,0,1.473,3.448,8.563,8.563,0,0,0,4.808,1.032,23.868,23.868,0,0,0,5.706-.693c.7-.177,1.179-.153,1.428.065a2.017,2.017,0,0,1,.373,1.47v.565a2.321,2.321,0,0,1-.328,1.47,3.169,3.169,0,0,1-1.47.68,21.217,21.217,0,0,1-5.709.7q-5.577,0-8.19-2.263t-2.626-7.134V89.759q0-9.527,9.747-9.529,4.569,0,6.94,2.305T819.3,89.321Zm-14.537-.835v1.1h10.278v-1.1q0-4.348-5.183-4.346Q804.767,84.14,804.765,88.486Z" transform="translate(-591.33 -59.462)" fill="#9ec229"/><path d="M301.213,197.639h-2.647v2.61a.9.9,0,0,1-.142.593.788.788,0,0,1-.578.155h-.223a.788.788,0,0,1-.578-.155.887.887,0,0,1-.144-.593v-6.1a1.665,1.665,0,0,1,.354-1.182,1.526,1.526,0,0,1,1.137-.368h3.316a.8.8,0,0,1,.572.155.869.869,0,0,1,.15.593v.116a.869.869,0,0,1-.15.6.819.819,0,0,1-.572.15h-2.77a.336.336,0,0,0-.373.386v1.421h2.647a.819.819,0,0,1,.572.15.872.872,0,0,1,.147.6v.129a.872.872,0,0,1-.147.593A.8.8,0,0,1,301.213,197.639Z" transform="translate(-218.766 -142.647)" fill="#939597"/><path d="M324.63,206.177a3.117,3.117,0,0,1-2.248-.712,2.879,2.879,0,0,1-.733-2.156v-1.032a2.832,2.832,0,0,1,.764-2.127,3.044,3.044,0,0,1,2.216-.74,3.08,3.08,0,0,1,2.237.709,2.91,2.91,0,0,1,.72,2.158v1.032a2.857,2.857,0,0,1-.751,2.132A3.022,3.022,0,0,1,324.63,206.177Zm1.329-2.867v-1.032a1.387,1.387,0,0,0-.284-1,2.07,2.07,0,0,0-2.1.005,1.345,1.345,0,0,0-.3.99v1.032a1.337,1.337,0,0,0,.3.982,2.062,2.062,0,0,0,2.1.008,1.341,1.341,0,0,0,.284-.99Z" transform="translate(-237.084 -147.672)" fill="#939597"/><path d="M350.058,201.878v3.414a.872.872,0,0,1-.137.583.788.788,0,0,1-.559.142h-.234a.788.788,0,0,1-.559-.142.872.872,0,0,1-.137-.583v-3.542a2.256,2.256,0,0,1,.656-1.751,2.778,2.778,0,0,1,1.927-.6h.137a.6.6,0,0,1,.5.179,1.114,1.114,0,0,1,.137.646v.144a.764.764,0,0,1-.123.525.714.714,0,0,1-.509.092h-.137a1.117,1.117,0,0,0-.754.192A.948.948,0,0,0,350.058,201.878Z" transform="translate(-256.887 -147.661)" fill="#939597"/><path d="M376.445,200.249v-6.9a.9.9,0,0,1,.142-.593.788.788,0,0,1,.578-.155h.223a.788.788,0,0,1,.578.155.9.9,0,0,1,.142.593v6.9a.9.9,0,0,1-.142.593.788.788,0,0,1-.578.155h-.223a.788.788,0,0,1-.578-.155A.9.9,0,0,1,376.445,200.249Z" transform="translate(-277.607 -142.647)" fill="#939597"/><path d="M390.418,202.017v3.28a.872.872,0,0,1-.137.583.788.788,0,0,1-.559.142h-.234a.788.788,0,0,1-.559-.142.872.872,0,0,1-.137-.583v-3.28a2.522,2.522,0,0,1,.714-1.943,3,3,0,0,1,2.116-.664,3.071,3.071,0,0,1,2.124.638,2.584,2.584,0,0,1,.685,1.969v3.28a.888.888,0,0,1-.137.583.788.788,0,0,1-.559.142H393.5a.788.788,0,0,1-.559-.142.872.872,0,0,1-.137-.583v-3.28a1.05,1.05,0,0,0-.263-.8,2.1,2.1,0,0,0-1.875,0A1,1,0,0,0,390.418,202.017Z" transform="translate(-286.759 -147.672)" fill="#939597"/><path d="M413.2,192.558v-.053a.861.861,0,0,1,.123-.525.9.9,0,0,1,.486-.244l.507-.116V191.1a2.57,2.57,0,0,1,.591-1.88,2.459,2.459,0,0,1,1.809-.586,5.427,5.427,0,0,1,.633.037.788.788,0,0,1,.551.239,1.05,1.05,0,0,1,.144.628v.129c0,.284-.042.46-.126.525a.845.845,0,0,1-.57.05c-.263-.016-.436-.024-.509-.024q-.906,0-.906.735v.667h1.292a.787.787,0,0,1,.557.142.867.867,0,0,1,.137.58v.142a.877.877,0,0,1-.137.583.788.788,0,0,1-.557.142h-1.292v4.144a.869.869,0,0,1-.139.583.788.788,0,0,1-.557.142h-.226a.788.788,0,0,1-.557-.142.869.869,0,0,1-.139-.583V193.2h-.5a.693.693,0,0,1-.5-.131A.756.756,0,0,1,413.2,192.558Z" transform="translate(-304.819 -139.722)" fill="#939597"/><path d="M436.683,206.177a3.122,3.122,0,0,1-2.25-.712,2.879,2.879,0,0,1-.733-2.156v-1.032a2.832,2.832,0,0,1,.764-2.127,3.783,3.783,0,0,1,4.453-.032,2.907,2.907,0,0,1,.722,2.158v1.032a2.851,2.851,0,0,1-.754,2.132A3.028,3.028,0,0,1,436.683,206.177Zm1.329-2.867v-1.032a1.374,1.374,0,0,0-.286-1,1.467,1.467,0,0,0-1.05-.284,1.452,1.452,0,0,0-1.05.289,1.344,1.344,0,0,0-.3.99v1.032a1.337,1.337,0,0,0,.292.982,1.486,1.486,0,0,0,1.05.291,1.511,1.511,0,0,0,1.05-.284A1.34,1.34,0,0,0,438.012,203.309Z" transform="translate(-319.994 -147.672)" fill="#939597"/><path d="M462.09,201.878v3.414a.872.872,0,0,1-.137.583.788.788,0,0,1-.559.142h-.236a.788.788,0,0,1-.559-.142.872.872,0,0,1-.137-.583v-3.542a2.251,2.251,0,0,1,.659-1.751,2.771,2.771,0,0,1,1.925-.6h.137a.6.6,0,0,1,.5.179,1.135,1.135,0,0,1,.137.646v.144a.749.749,0,0,1-.126.525.706.706,0,0,1-.509.092h-.136a1.105,1.105,0,0,0-.751.192A.948.948,0,0,0,462.09,201.878Z" transform="translate(-339.779 -147.661)" fill="#939597"/><path d="M478.178,202.017v3.28a.872.872,0,0,1-.137.583.787.787,0,0,1-.557.142h-.236a.788.788,0,0,1-.559-.142.872.872,0,0,1-.137-.583v-3.28a2.629,2.629,0,0,1,.67-1.938,2.682,2.682,0,0,1,1.988-.67,2.021,2.021,0,0,1,1.838.825,2.087,2.087,0,0,1,1.838-.825,2.3,2.3,0,0,1,2.634,2.607v3.28a.872.872,0,0,1-.137.583.788.788,0,0,1-.559.142h-.236a.788.788,0,0,1-.559-.142.872.872,0,0,1-.137-.583v-3.28a1.174,1.174,0,0,0-.21-.8,1.113,1.113,0,0,0-.788-.218,1.2,1.2,0,0,0-.838.218,1.129,1.129,0,0,0-.218.8v3.28a.888.888,0,0,1-.137.583.788.788,0,0,1-.559.142h-.186a.788.788,0,0,1-.559-.142.872.872,0,0,1-.137-.583v-3.28A.839.839,0,0,0,479.228,201a.851.851,0,0,0-1.032,1.019Z" transform="translate(-351.714 -147.672)" fill="#939597"/><path d="M519.523,201.646v2.466a1.893,1.893,0,0,1-.659,1.576,3.188,3.188,0,0,1-2.038.509,3.391,3.391,0,0,1-2.038-.5,1.808,1.808,0,0,1-.659-1.544q0-2.017,2.523-2.014h1.255v-.491a.649.649,0,0,0-.3-.614,2.1,2.1,0,0,0-.992-.173,7.736,7.736,0,0,0-1.081.076.717.717,0,0,1-.555-.058.743.743,0,0,1-.142-.549v-.053a.906.906,0,0,1,.131-.567.883.883,0,0,1,.525-.221,9.61,9.61,0,0,1,1.008-.063,3.944,3.944,0,0,1,2.266.525A1.935,1.935,0,0,1,519.523,201.646Zm-1.615,2.363v-.62h-1.281q-.882,0-.882.709a.66.66,0,0,0,.263.549,1.575,1.575,0,0,0,.788.123,1.5,1.5,0,0,0,.814-.15.751.751,0,0,0,.3-.6Z" transform="translate(-379.504 -147.686)" fill="#939597"/><path d="M537.159,196.222v-.053a.887.887,0,0,1,.126-.544.846.846,0,0,1,.483-.231l.509-.116.15-1.021a.84.84,0,0,1,.2-.525.869.869,0,0,1,.546-.129h.073a.762.762,0,0,1,.525.129.838.838,0,0,1,.123.544v1h1.421a.788.788,0,0,1,.557.142.864.864,0,0,1,.139.58v.142a.874.874,0,0,1-.139.583.788.788,0,0,1-.557.142H539.9v2.555q0,.867.788.867a4.44,4.44,0,0,0,.869-.076.788.788,0,0,1,.554.018c.087.066.131.234.131.509v.142a1.065,1.065,0,0,1-.145.633.914.914,0,0,1-.541.286,3.878,3.878,0,0,1-.869.076,2.15,2.15,0,0,1-2.4-2.466v-2.544h-.5a.691.691,0,0,1-.5-.131.754.754,0,0,1-.136-.515Z" transform="translate(-396.539 -143.386)" fill="#939597"/><path d="M560.964,190.5a.932.932,0,0,1-1.368,0,.989.989,0,0,1-.286-.709,1,1,0,0,1,.286-.712.938.938,0,0,1,1.368,0,1,1,0,0,1,.286.712.99.99,0,0,1-.286.709Zm-1.491,6.961v-5.01a.867.867,0,0,1,.136-.58.788.788,0,0,1,.559-.142h.223a.788.788,0,0,1,.559.142.867.867,0,0,1,.137.58v5.01a.872.872,0,0,1-.137.583.788.788,0,0,1-.559.142h-.223a.788.788,0,0,1-.559-.142A.872.872,0,0,1,559.473,197.459Z" transform="translate(-412.913 -139.834)" fill="#939597"/><path d="M573.7,206.177a3.118,3.118,0,0,1-2.248-.712,2.879,2.879,0,0,1-.733-2.156v-1.032a2.831,2.831,0,0,1,.764-2.127,3.044,3.044,0,0,1,2.216-.74,3.086,3.086,0,0,1,2.237.709,2.91,2.91,0,0,1,.719,2.158v1.032a2.857,2.857,0,0,1-.751,2.132A3.039,3.039,0,0,1,573.7,206.177Zm1.331-2.867v-1.032a1.386,1.386,0,0,0-.286-1,2.07,2.07,0,0,0-2.1.005,1.345,1.345,0,0,0-.3.99v1.032a1.337,1.337,0,0,0,.3.987,2.062,2.062,0,0,0,2.1.008,1.392,1.392,0,0,0,.286-1Z" transform="translate(-421.381 -147.672)" fill="#939597"/><path d="M599.108,202.017v3.28a.871.871,0,0,1-.137.583.788.788,0,0,1-.559.142h-.234a.788.788,0,0,1-.559-.142.872.872,0,0,1-.136-.583v-3.28a2.522,2.522,0,0,1,.714-1.943,3,3,0,0,1,2.116-.664,3.072,3.072,0,0,1,2.124.638,2.6,2.6,0,0,1,.691,1.969v3.28a.888.888,0,0,1-.137.583.788.788,0,0,1-.559.142H602.2a.788.788,0,0,1-.559-.142.871.871,0,0,1-.137-.583v-3.28a1.05,1.05,0,0,0-.249-.8,2.1,2.1,0,0,0-1.875,0A1,1,0,0,0,599.108,202.017Z" transform="translate(-441.176 -147.672)" fill="#939597"/><path d="M633.153,193.468v-.116a.9.9,0,0,1,.142-.593.8.8,0,0,1,.578-.155h5.013a.8.8,0,0,1,.572.155.885.885,0,0,1,.147.593v.116a.888.888,0,0,1-.147.6.819.819,0,0,1-.572.15H637.22v6.039a.869.869,0,0,1-.15.593.788.788,0,0,1-.57.155h-.242a.788.788,0,0,1-.578-.155.887.887,0,0,1-.144-.593v-6.039h-1.665a.817.817,0,0,1-.578-.15A.905.905,0,0,1,633.153,193.468Z" transform="translate(-467.576 -142.648)" fill="#939597"/><path d="M666.471,202.183q0,.089-.024.5a.935.935,0,0,1-.2.575.972.972,0,0,1-.6.134h-3.151v.194a.811.811,0,0,0,.383.743,2.442,2.442,0,0,0,1.242.239,7.541,7.541,0,0,0,1.5-.181q.4-.089.525.039a.869.869,0,0,1,.131.58v.142a.974.974,0,0,1-.126.583,1,1,0,0,1-.525.263,5.515,5.515,0,0,1-1.515.168,3.705,3.705,0,0,1-2.461-.677,2.713,2.713,0,0,1-.788-2.151V202.3a2.56,2.56,0,0,1,2.888-2.9Q666.472,199.4,666.471,202.183Zm-3.986-.349v.194h2.447v-.194c0-.654-.412-.982-1.232-.982s-1.216.336-1.216.99Z" transform="translate(-488.076 -147.664)" fill="#939597"/><path d="M685.91,203.41v-1.239a2.66,2.66,0,0,1,.788-2.027,3.074,3.074,0,0,1,2.193-.735,3.15,3.15,0,0,1,.809.089.948.948,0,0,1,.525.263,1.05,1.05,0,0,1,.129.609v.142c0,.292-.045.478-.136.554s-.263.087-.525.026A2.873,2.873,0,0,0,688.9,201a1.568,1.568,0,0,0-1.05.263,1.244,1.244,0,0,0-.3.943v1.163a1.186,1.186,0,0,0,.328.956,1.849,1.849,0,0,0,1.15.263,3.9,3.9,0,0,0,.759-.079.709.709,0,0,1,.546.039.789.789,0,0,1,.136.557v.129a.98.98,0,0,1-.136.6,1.025,1.025,0,0,1-.546.263,3.39,3.39,0,0,1-.832.089Q685.91,206.175,685.91,203.41Z" transform="translate(-506.601 -147.67)" fill="#939597"/><path d="M706.67,198.458v-7.594a.882.882,0,0,1,.137-.58.788.788,0,0,1,.559-.142h.236a.788.788,0,0,1,.559.142.866.866,0,0,1,.137.58v2.442a2.385,2.385,0,0,1,1.9-.735,2.23,2.23,0,0,1,1.492.525,2.134,2.134,0,0,1,.62,1.707v3.676a.872.872,0,0,1-.137.583.787.787,0,0,1-.559.142h-.236a.788.788,0,0,1-.559-.142.888.888,0,0,1-.137-.583v-3.39a.89.89,0,0,0-.263-.712,1.189,1.189,0,0,0-.788-.218,1.287,1.287,0,0,0-1.014.368,1.775,1.775,0,0,0-.328,1.195v2.736a.872.872,0,0,1-.137.583.788.788,0,0,1-.559.142h-.236a.788.788,0,0,1-.559-.142.887.887,0,0,1-.129-.583Z" transform="translate(-522.332 -140.833)" fill="#939597"/><path d="M734.41,202.017v3.28a.887.887,0,0,1-.137.583.788.788,0,0,1-.559.142h-.236a.788.788,0,0,1-.559-.142.872.872,0,0,1-.137-.583v-3.28a2.53,2.53,0,0,1,.714-1.943,2.993,2.993,0,0,1,2.119-.664,3.031,3.031,0,0,1,2.124.638,2.573,2.573,0,0,1,.683,1.969v3.28a.871.871,0,0,1-.137.583.788.788,0,0,1-.559.142h-.236a.788.788,0,0,1-.559-.142.872.872,0,0,1-.137-.583v-3.28a1.031,1.031,0,0,0-.263-.8,2.1,2.1,0,0,0-1.875,0,1.008,1.008,0,0,0-.247.8Z" transform="translate(-541.588 -147.672)" fill="#939597"/><path d="M761.433,206.177a3.127,3.127,0,0,1-2.25-.712,2.865,2.865,0,0,1-.733-2.156v-1.032a2.832,2.832,0,0,1,.764-2.127,3.783,3.783,0,0,1,4.453-.032,2.907,2.907,0,0,1,.722,2.158v1.032a2.851,2.851,0,0,1-.754,2.132A3.028,3.028,0,0,1,761.433,206.177Zm1.329-2.867v-1.032a1.374,1.374,0,0,0-.286-1,1.466,1.466,0,0,0-1.05-.284,1.452,1.452,0,0,0-1.05.289,1.345,1.345,0,0,0-.3.99v1.032a1.336,1.336,0,0,0,.3.987,1.486,1.486,0,0,0,1.05.291,1.511,1.511,0,0,0,1.05-.284A1.354,1.354,0,0,0,762.761,203.309Z" transform="translate(-560.52 -147.672)" fill="#939597"/><path d="M785.213,197.232v-6.368a.867.867,0,0,1,.136-.58.788.788,0,0,1,.559-.142h.223a.788.788,0,0,1,.559.142.865.865,0,0,1,.137.58v5.995a1.335,1.335,0,0,0,.123.677.476.476,0,0,0,.423.186h.063a.41.41,0,0,1,.341.11.941.941,0,0,1,.081.483v.247a1.107,1.107,0,0,1-.087.525.486.486,0,0,1-.336.194,3.1,3.1,0,0,1-.373.026,1.762,1.762,0,0,1-1.368-.525A2.23,2.23,0,0,1,785.213,197.232Z" transform="translate(-580.251 -140.833)" fill="#939597"/><path d="M800.623,206.177a3.123,3.123,0,0,1-2.25-.712,2.869,2.869,0,0,1-.733-2.156v-1.032a2.832,2.832,0,0,1,.764-2.127,3.048,3.048,0,0,1,2.219-.74,3.087,3.087,0,0,1,2.237.709,2.9,2.9,0,0,1,.719,2.158v1.032a2.9,2.9,0,0,1-.751,2.132A2.994,2.994,0,0,1,800.623,206.177Zm1.329-2.867v-1.032a1.374,1.374,0,0,0-.286-1,2.07,2.07,0,0,0-2.1.005,1.344,1.344,0,0,0-.3.99v1.032a1.337,1.337,0,0,0,.307.982,1.487,1.487,0,0,0,1.05.291,1.511,1.511,0,0,0,1.05-.284,1.34,1.34,0,0,0,.286-.99Z" transform="translate(-589.42 -147.672)" fill="#939597"/><path d="M829.167,200.064v.076q0,2.4-2.783,2.4a4.294,4.294,0,0,0-.961.066.263.263,0,0,0-.231.263c0,.121.076.2.231.239a4.856,4.856,0,0,0,.961.058,4.518,4.518,0,0,1,2.337.425,1.7,1.7,0,0,1,.633,1.526,1.834,1.834,0,0,1-.633,1.576,4.2,4.2,0,0,1-2.337.452,4.843,4.843,0,0,1-2.363-.412,1.45,1.45,0,0,1-.633-1.313,1.337,1.337,0,0,1,.622-1.226,1.092,1.092,0,0,1-.436-.956,1.229,1.229,0,0,1,.956-1.2,2.034,2.034,0,0,1-.956-1.9v-.076a2.133,2.133,0,0,1,.74-1.73,3.112,3.112,0,0,1,2.067-.62,3.306,3.306,0,0,1,1.1.168l.72-.544a.84.84,0,0,1,.5-.226.754.754,0,0,1,.462.278l.037.037a.848.848,0,0,1,.278.454.809.809,0,0,1-.242.465l-.446.525A1.869,1.869,0,0,1,829.167,200.064Zm-2.783,4.545a8.354,8.354,0,0,1-1.029-.039.6.6,0,0,0-.336.6.436.436,0,0,0,.25.452,3.84,3.84,0,0,0,1.116.1,4.784,4.784,0,0,0,1-.076.441.441,0,0,0,.347-.478c0-.249-.087-.407-.262-.465A3.941,3.941,0,0,0,826.384,204.609Zm1.155-4.464v-.076a.819.819,0,0,0-.263-.677,1.446,1.446,0,0,0-.89-.215,1.494,1.494,0,0,0-.906.215.809.809,0,0,0-.263.677v.076a.882.882,0,0,0,.263.725,1.457,1.457,0,0,0,.906.218,1.4,1.4,0,0,0,.9-.218.9.9,0,0,0,.257-.73Z" transform="translate(-608.403 -145.976)" fill="#939597"/><path d="M850.481,200.7l.822,3.9a.825.825,0,0,0,.192.439.593.593,0,0,0,.391.1.365.365,0,0,0,.286-.116,1.109,1.109,0,0,0,.173-.425l.819-3.9a1.051,1.051,0,0,1,.263-.567.909.909,0,0,1,.578-.142h.263q.42,0,.525.142a.788.788,0,0,1,.018.567l-1.245,5.748a4.2,4.2,0,0,1-.951,2.053,2.959,2.959,0,0,1-1.733.867.933.933,0,0,1-.6-.039.917.917,0,0,1-.236-.557l-.013-.063a.835.835,0,0,1,0-.57.746.746,0,0,1,.478-.244,1.678,1.678,0,0,0,1.344-1.339,1.521,1.521,0,0,1-.509.052,1.334,1.334,0,0,1-1.05-.394,3.3,3.3,0,0,1-.565-1.415l-.909-4.094a.788.788,0,0,1,.018-.567q.105-.142.525-.142h.263a.908.908,0,0,1,.578.142A1.072,1.072,0,0,1,850.481,200.7Z" transform="translate(-627.133 -148.096)" fill="#939597"/></g></g></svg>