<svg xmlns="http://www.w3.org/2000/svg" width="254.84" height="29.361" viewBox="0 0 254.84 29.361"><g transform="translate(-495.275 -5.087)"><path d="M.661,15.768C16.33,14.609,31.443,10.251,46.6,6.589c15.762-3.848,31.57-6.4,47.842-4.636,16.411,1.762,32.312,6.722,48.4,10.245A176.469,176.469,0,0,0,189.9,16.417,168.526,168.526,0,0,0,242.005,5.384c.834-.325.464-1.669-.371-1.344a169.188,169.188,0,0,1-95.036,7.51C130.79,8.258,115.306,3.437,99.313,1.119,83.875-1.107,68.808.145,53.6,3.483,35.986,7.331,18.694,12.987.661,14.331c-.881.139-.881,1.53,0,1.437Z" transform="translate(495.275 5.087)" fill="#292d32"/><circle cx="3.25" cy="3.25" r="3.25" transform="translate(737.095 27.948)" fill="#f5df4d"/><circle cx="2.5" cy="2.5" r="2.5" transform="translate(745.115 21.04)" fill="#f5df4d"/><circle cx="6" cy="6" r="6" transform="translate(718.419 7.395)" fill="#9ec229"/></g></svg>