<svg xmlns="http://www.w3.org/2000/svg" width="44" height="41.666" viewBox="0 0 44 41.666">
  <g id="svgexport-7" transform="translate(0 -13.582)">
    <g id="Group_60909" data-name="Group 60909" transform="translate(0 13.582)">
      <path id="Path_39017" data-name="Path 39017" d="M.409,31.291a2.7,2.7,0,0,0,2.491,2.4l.321.022A1.511,1.511,0,0,1,4.63,35.218v3a1.221,1.221,0,0,0,1.96.972,22.386,22.386,0,0,0,4.616-4.5,1.506,1.506,0,0,1,1.248-.643q5.53.028,11.059-.359A2.7,2.7,0,0,0,25.8,32.063,2.651,2.651,0,0,0,26,31.3a68.555,68.555,0,0,0,0-14.963,2.7,2.7,0,0,0-2.49-2.392,146.961,146.961,0,0,0-16.474-.232q-2.07.086-4.141.232A2.7,2.7,0,0,0,.41,16.335a68.541,68.541,0,0,0,0,14.956Z" transform="translate(0 -13.582)" fill="#b3d0ff"/>
      <path id="Path_39018" data-name="Path 39018" d="M213.964,198.359a2.862,2.862,0,0,1-2.642,2.543l-.341.023a1.6,1.6,0,0,0-1.494,1.6v3.186a1.3,1.3,0,0,1-2.079,1.031,23.743,23.743,0,0,1-4.9-4.776,1.6,1.6,0,0,0-1.324-.682q-5.865.03-11.73-.381a2.858,2.858,0,0,1-2.428-1.725,2.814,2.814,0,0,1-.214-.812,72.706,72.706,0,0,1,0-15.87,2.858,2.858,0,0,1,2.641-2.537,155.859,155.859,0,0,1,17.473-.246q2.2.091,4.392.246a2.859,2.859,0,0,1,2.642,2.537A72.691,72.691,0,0,1,213.964,198.359Z" transform="translate(-170.397 -165.343)" fill="#f5df4d"/>
      <g id="Group_60907" data-name="Group 60907" transform="translate(23.955 21.298)">
        <path id="Path_39019" data-name="Path 39019" d="M281.366,263.564c0-1.14-.559-2.068-1.245-2.068s-1.245.928-1.245,2.068.559,2.068,1.245,2.068S281.366,264.7,281.366,263.564Z" transform="translate(-278.875 -261.496)" fill="#232440"/>
        <path id="Path_39020" data-name="Path 39020" d="M391.8,261.5c-.687,0-1.245.928-1.245,2.068s.559,2.068,1.245,2.068,1.245-.928,1.245-2.068S392.49,261.5,391.8,261.5Z" transform="translate(-380.949 -261.496)" fill="#232440"/>
        <path id="Path_39021" data-name="Path 39021" d="M303.257,325.517a.665.665,0,0,0-.871.354,3.747,3.747,0,0,1-6.907,0,.665.665,0,0,0-1.225.517,5.077,5.077,0,0,0,9.358,0A.665.665,0,0,0,303.257,325.517Z" transform="translate(-292.882 -319.961)" fill="#232440"/>
      </g>
      <g id="Group_60908" data-name="Group 60908" transform="translate(3.698 4.241)">
        <path id="Path_39022" data-name="Path 39022" d="M58.679,64.2H43.65a.665.665,0,1,1,0-1.329H58.679a.665.665,0,1,1,0,1.329Z" transform="translate(-42.985 -62.872)" fill="#f9f6f9"/>
        <path id="Path_39023" data-name="Path 39023" d="M58.679,109.445H43.65a.665.665,0,1,1,0-1.329H58.679a.665.665,0,1,1,0,1.329Z" transform="translate(-42.985 -104.223)" fill="#f9f6f9"/>
        <path id="Path_39024" data-name="Path 39024" d="M49.012,154.688H43.65a.665.665,0,1,1,0-1.329h5.363a.665.665,0,1,1,0,1.329Z" transform="translate(-42.985 -145.574)" fill="#f9f6f9"/>
      </g>
    </g>
  </g>
</svg>
