<svg xmlns="http://www.w3.org/2000/svg" width="48" height="32.012" viewBox="0 0 48 32.012">
  <g id="svgexport-10_3_" data-name="svgexport-10 (3)" transform="translate(0 -85.267)">
    <g id="Group_60901" data-name="Group 60901" transform="translate(0 85.267)">
      <g id="Group_60900" data-name="Group 60900" transform="translate(0 0)">
        <g id="Group_60899" data-name="Group 60899">
          <g id="Group_60897" data-name="Group 60897">
            <path id="Path_38998" data-name="Path 38998" d="M230.527,167.74a1.113,1.113,0,0,1,.588-1.225c4-2.02,6.639-5.521,6.639-9.5,0-4.956-4.1-9.168-9.8-10.7-7.3.338-13.091,5.048-13.091,10.81,0,5.981,6.237,10.831,13.932,10.831h.057a1.058,1.058,0,0,1,.922.526,5.631,5.631,0,0,0,.536.777l.5-.469C230.684,168.363,230.578,167.981,230.527,167.74Z" transform="translate(-194.728 -140.592)" fill="#e5f3bb"/>
            <path id="Path_38999" data-name="Path 38999" d="M341.615,166.01c3.821-1.931,6.349-5.279,6.349-9.087,0-5.982-6.237-10.831-13.932-10.831a17.828,17.828,0,0,0-3.042.26c6.231,1.079,10.889,5.4,10.889,10.571,0,3.807-2.527,7.155-6.349,9.087a1.064,1.064,0,0,0-.562,1.172,11.8,11.8,0,0,0,.578,1.876c2.011,2.49,5.708,3.171,7.242,3.349a.327.327,0,0,0,.314-.5,15.16,15.16,0,0,1-2.049-4.724A1.064,1.064,0,0,1,341.615,166.01Z" transform="translate(-299.964 -140.397)" fill="#d4e993"/>
            <path id="Path_39000" data-name="Path 39000" d="M15.261,87.366C6.591,88.486,0,94.339,0,101.394a12.361,12.361,0,0,0,3.983,8.86,1.13,1.13,0,0,1,.3,1.105A21.857,21.857,0,0,1,.82,118.137a1.228,1.228,0,0,0,1.281.288,12.269,12.269,0,0,0,5.562-3.877,1.638,1.638,0,0,1,1.878-.364q.641.294,1.315.547a3.8,3.8,0,0,0,1.721.245,1.142,1.142,0,0,1,.381.025,21.737,21.737,0,0,0,2.31.419l3.484-.112c7.34-2.029,12.6-7.474,12.6-13.875,0-6.6-5.588-12.185-13.288-14.055Z" transform="translate(0 -87.169)" fill="#95d6a4"/>
            <g id="Group_60896" data-name="Group 60896" transform="translate(0.385)">
              <path id="Path_39001" data-name="Path 39001" d="M10.842,366.591a12.405,12.405,0,0,1-6.3,4.129c-.133.18-.255.341-.361.477a.351.351,0,0,0,.286.567c2.025-.051,7.707-.5,11.148-3.886a1.14,1.14,0,0,1,1.064-.294l0,0a21.164,21.164,0,0,1-3.956-1.353A1.636,1.636,0,0,0,10.842,366.591Z" transform="translate(-4.103 -339.752)" fill="#78c2a4"/>
              <path id="Path_39002" data-name="Path 39002" d="M165.781,85.267a23.6,23.6,0,0,0-3.042.2C171.4,86.59,178,92.441,178,99.492s-6.6,12.9-15.254,14.027a23.547,23.547,0,0,0,3.036.2c10.108,0,18.3-6.369,18.3-14.225S175.89,85.267,165.781,85.267Z" transform="translate(-147.863 -85.267)" fill="#78c2a4"/>
            </g>
          </g>
          <g id="Group_60898" data-name="Group 60898" transform="translate(5.242 12.358)">
            <circle id="Ellipse_10980" data-name="Ellipse 10980" cx="1.786" cy="1.786" r="1.786" fill="#f0f7ff"/>
            <circle id="Ellipse_10981" data-name="Ellipse 10981" cx="1.786" cy="1.786" r="1.786" transform="translate(7.163)" fill="#f0f7ff"/>
            <circle id="Ellipse_10982" data-name="Ellipse 10982" cx="1.786" cy="1.786" r="1.786" transform="translate(14.327)" fill="#f0f7ff"/>
            <circle id="Ellipse_10983" data-name="Ellipse 10983" cx="1.786" cy="1.786" r="1.786" transform="translate(21.49)" fill="#f0f7ff"/>
          </g>
        </g>
      </g>
    </g>
  </g>
</svg>
