<svg xmlns="http://www.w3.org/2000/svg" width="32" height="32.402" viewBox="0 0 32 32.402"><path d="M16,0A16,16,0,1,1,0,16,16,16,0,0,1,16,0Z" fill="#e2e2e2"/><path d="M13.674,31.3a.78.78,0,0,0,.81-.791V18.347h3.242a1.621,1.621,0,1,0,0-3.242H14.484V11.863a1.621,1.621,0,0,1,1.621-1.621h1.621a1.621,1.621,0,1,0,0-3.242H16.105a4.863,4.863,0,0,0-4.863,4.863v3.242H9.621a1.621,1.621,0,1,0,0,3.242h1.621V30.329a.783.783,0,0,0,.652.781A16.274,16.274,0,0,0,13.674,31.3Z" transform="translate(1.727 1.105)" fill="#727a83"/></svg>