<svg xmlns="http://www.w3.org/2000/svg" width="32" height="32" viewBox="0 0 32 32"><circle cx="5.344" cy="5.344" r="5.344" transform="translate(10.656 10.123)" fill="#e2e2e2"/><path d="M10,2a8,8,0,0,0-8,8V26a8,8,0,0,0,8,8H26a8,8,0,0,0,8-8V10a8,8,0,0,0-8-8Zm8,20.8A4.8,4.8,0,1,0,13.2,18,4.8,4.8,0,0,0,18,22.8Z" transform="translate(-2 -2)" fill="#e2e2e2" fill-rule="evenodd"/><path d="M18.6,8.206A1.6,1.6,0,1,0,17,6.6,1.6,1.6,0,0,0,18.6,8.206Z" transform="translate(6.985 -0.191)" fill="#727a83"/><path d="M23.031,15.015A8.015,8.015,0,1,1,15.015,7,8.015,8.015,0,0,1,23.031,15.015Zm-3.206,0a4.809,4.809,0,1,1-4.809-4.809A4.809,4.809,0,0,1,19.825,15.015Z" transform="translate(0.985 0.984)" fill="#727a83" fill-rule="evenodd"/></svg>