<svg xmlns="http://www.w3.org/2000/svg" width="32" height="32" viewBox="0 0 32 32"><path d="M2,6.8A4.8,4.8,0,0,1,6.8,2H29.2A4.8,4.8,0,0,1,34,6.8V29.2A4.8,4.8,0,0,1,29.2,34H6.8A4.8,4.8,0,0,1,2,29.2Z" transform="translate(-2 -2)" fill="#e2e2e2"/><g transform="translate(6.338 6.337)"><path d="M7.614,9.228A1.614,1.614,0,1,0,6,7.614,1.614,1.614,0,0,0,7.614,9.228Z" transform="translate(-6 -6)" fill="#727a83"/><path d="M7.614,10A1.614,1.614,0,0,0,6,11.614V21.3a1.614,1.614,0,1,0,3.228,0V11.614A1.614,1.614,0,0,0,7.614,10Z" transform="translate(-6 -3.578)" fill="#727a83"/><path d="M16.456,13.228a3.228,3.228,0,0,0-3.228,3.228V21.3A1.614,1.614,0,1,1,10,21.3V11.614a1.614,1.614,0,0,1,3.085-.665,6.457,6.457,0,0,1,9.827,5.507V21.3a1.614,1.614,0,0,1-3.228,0V16.456A3.228,3.228,0,0,0,16.456,13.228Z" transform="translate(-3.58 -3.578)" fill="#727a83"/></g></svg>