<svg xmlns="http://www.w3.org/2000/svg" width="32" height="28.193" viewBox="0 0 32 28.193"><path d="M31.74,10.048c.783,11.747-7.831,21.145-18.8,21.145A24.965,24.965,0,0,1,2.425,29.267a.674.674,0,0,1,.338-1.28c3.65-.242,6.67-1.113,8.616-3.059,4.7-4.7,5.482-6.265,6.68-12.493A7.05,7.05,0,0,1,30.449,5.981l2.69-.384a.783.783,0,0,1,.762,1.21Z" transform="translate(-2.034 -3)" fill="#e2e2e2"/><path d="M11.234,23.964C2.753,21.137,1.29,10.653,2.813,5.185a.727.727,0,0,1,1.35-.07c2.6,4.449,7.549,6.933,13.749,6.36C27.676,11.475,25.327,28.662,11.234,23.964Z" transform="translate(-1.893 -2.043)" fill="#727a83"/></svg>